<svg xmlns="http://www.w3.org/2000/svg" viewBox="0 0 16 12" width="16" height="12">
    <path d="M4.75 0C4.98438 0 5.1849 0.0260417 5.35156 0.078125C5.52344 0.125 5.67448 0.184896 5.80469 0.257812C5.9401 0.330729 6.0599 0.411458 6.16406 0.5C6.26823 0.588542 6.3724 0.669271 6.47656 0.742188C6.58594 0.815104 6.70052 0.877604 6.82031 0.929688C6.94531 0.976562 7.08854 1 7.25 1H15C15.1406 1 15.2708 1.02604 15.3906 1.07812C15.5104 1.13021 15.6146 1.20312 15.7031 1.29688C15.7969 1.38542 15.8698 1.48958 15.9219 1.60938C15.974 1.72917 16 1.85938 16 2V12H0V1C0 0.859375 0.0260417 0.729167 0.078125 0.609375C0.130208 0.489583 0.200521 0.385417 0.289062 0.296875C0.382812 0.203125 0.489583 0.130208 0.609375 0.078125C0.729167 0.0260417 0.859375 0 1 0H4.75ZM1 1V2H4.75C4.875 2 4.98438 1.98958 5.07812 1.96875C5.17188 1.94271 5.25781 1.90885 5.33594 1.86719C5.41406 1.82031 5.48958 1.76823 5.5625 1.71094C5.64062 1.64844 5.72396 1.57812 5.8125 1.5C5.72396 1.42188 5.64062 1.35417 5.5625 1.29688C5.48958 1.23438 5.41406 1.18229 5.33594 1.14062C5.25781 1.09375 5.17188 1.0599 5.07812 1.03906C4.98438 1.01302 4.875 1 4.75 1H1ZM15 2H7.25C7.08854 2 6.94531 2.02604 6.82031 2.07812C6.70052 2.125 6.58594 2.1849 6.47656 2.25781C6.3724 2.33073 6.26823 2.41146 6.16406 2.5C6.0599 2.58854 5.9401 2.66927 5.80469 2.74219C5.67448 2.8151 5.52344 2.8776 5.35156 2.92969C5.1849 2.97656 4.98438 3 4.75 3H1V11H15V2Z" />
</svg>
